<?xml version="1.0" standalone="no"?>
<!DOCTYPE svg PUBLIC "-//W3C//DTD SVG 20010904//EN"
 "http://www.w3.org/TR/2001/REC-SVG-20010904/DTD/svg10.dtd">
<svg version="1.0" xmlns="http://www.w3.org/2000/svg"
 width="840.000000pt" height="840.000000pt" viewBox="0 0 840.000000 840.000000"
 preserveAspectRatio="xMidYMid meet">
<metadata>
Created by potrace 1.14, written by Peter Selinger 2001-2017
</metadata>
<g transform="translate(0.000000,840.000000) scale(0.100000,-0.100000)"
fill="#000000" stroke="none">
<path d="M3968 8395 c-1 -2 -37 -6 -78 -9 -130 -11 -203 -21 -315 -43 -11 -2
-36 -6 -55 -9 -41 -7 -63 -12 -70 -14 -3 -1 -8 -2 -11 -2 -4 1 -22 -3 -40 -9
-19 -6 -43 -12 -54 -14 -11 -2 -54 -13 -95 -25 -41 -11 -82 -23 -90 -25 -22
-6 -178 -60 -230 -80 -120 -46 -208 -86 -350 -158 -223 -114 -432 -247 -619
-395 -167 -131 -402 -354 -511 -481 -25 -29 -52 -60 -60 -69 -44 -45 -172
-213 -254 -332 -152 -220 -317 -517 -411 -740 -41 -98 -48 -115 -50 -120 -1
-3 -5 -12 -8 -20 -75 -174 -195 -598 -232 -820 -3 -19 -8 -42 -10 -50 -2 -8
-7 -39 -10 -69 -4 -30 -9 -63 -11 -75 -2 -12 -7 -46 -10 -76 -3 -30 -8 -68
-10 -85 -26 -205 -26 -761 1 -960 2 -16 7 -52 10 -80 8 -68 14 -110 25 -175 6
-30 12 -68 14 -85 5 -35 9 -54 36 -175 5 -25 11 -54 14 -65 2 -11 11 -47 20
-80 9 -33 19 -69 21 -80 7 -30 96 -306 108 -335 6 -14 11 -27 12 -30 9 -28 76
-192 97 -240 42 -95 125 -259 180 -357 32 -57 58 -105 58 -108 0 -3 5 -11 10
-18 6 -7 50 -73 99 -148 270 -410 616 -771 1012 -1056 100 -72 359 -235 359
-226 0 3 8 -1 18 -9 27 -24 296 -152 422 -201 153 -60 371 -128 485 -153 11
-2 31 -6 45 -9 124 -27 179 -37 203 -38 15 0 27 -3 27 -6 0 -3 17 -7 38 -7 20
-1 53 -4 72 -8 196 -33 693 -28 930 10 76 12 86 14 115 18 25 3 96 17 115 21
3 1 23 5 45 10 54 12 54 12 63 15 4 1 12 3 17 4 34 7 226 63 275 81 25 9 52
18 60 20 27 6 245 96 258 107 6 6 12 8 12 4 0 -12 304 150 435 232 348 215
695 520 945 827 36 44 67 82 70 85 13 12 102 132 163 221 217 318 399 680 522
1041 33 99 83 257 90 288 2 8 10 42 18 75 9 33 18 71 21 85 2 14 11 57 20 95
15 69 30 151 41 230 4 22 8 51 11 65 4 23 12 93 20 165 14 136 18 249 18 495
0 157 -3 312 -7 345 -4 33 -9 89 -13 125 -3 36 -7 76 -9 90 -3 14 -7 43 -10
65 -33 224 -107 559 -144 659 -5 11 -9 24 -9 29 -1 19 -76 234 -86 246 -6 8
-10 17 -10 20 5 20 -113 293 -189 441 -48 94 -145 266 -179 318 -10 15 -21 34
-25 42 -4 8 -11 20 -15 25 -5 6 -43 60 -84 120 -199 287 -452 566 -720 790
-32 27 -61 52 -64 55 -37 38 -293 214 -440 302 -102 61 -388 211 -398 208 -1
0 -19 7 -40 16 -20 9 -53 22 -72 29 -19 8 -60 23 -90 35 -89 34 -306 101 -373
115 -10 2 -26 6 -35 9 -9 3 -28 7 -42 10 -14 3 -59 12 -100 20 -41 8 -91 17
-110 20 -131 20 -170 25 -235 32 -58 6 -562 14 -567 9z m502 -319 c52 -3 106
-8 120 -11 14 -3 47 -7 75 -11 27 -3 59 -7 70 -9 18 -2 42 -6 118 -20 53 -10
82 -16 99 -21 9 -3 27 -7 40 -9 49 -9 124 -28 143 -35 11 -4 40 -13 65 -19
138 -36 396 -139 585 -233 163 -82 394 -219 403 -240 2 -5 8 -8 14 -8 28 0
337 -249 482 -390 112 -108 161 -159 251 -265 22 -26 45 -52 52 -60 40 -43
212 -281 275 -381 98 -154 144 -239 224 -404 35 -74 69 -143 74 -152 6 -10 10
-22 10 -28 0 -6 9 -29 20 -53 17 -36 97 -253 104 -282 2 -5 6 -17 9 -25 3 -8
8 -26 12 -40 3 -14 13 -50 21 -80 9 -30 17 -59 18 -65 2 -5 8 -30 15 -54 7
-25 14 -56 16 -70 2 -14 4 -26 5 -26 3 0 22 -96 45 -235 13 -72 25 -178 41
-340 8 -81 9 -495 1 -611 -13 -187 -49 -429 -93 -614 -15 -60 -28 -116 -29
-125 -2 -8 -4 -15 -5 -15 -1 0 -3 -7 -5 -15 -1 -8 -11 -42 -21 -75 -10 -33
-18 -62 -19 -65 0 -3 -16 -50 -35 -105 -87 -259 -229 -560 -373 -793 -71 -113
-77 -122 -120 -186 l-38 -56 -22 21 c-49 46 -283 189 -317 194 -3 0 -14 6 -24
12 -19 11 -19 12 1 59 20 46 31 81 54 164 14 51 19 267 8 325 -15 74 -52 195
-61 201 -4 3 -8 11 -8 19 0 35 -109 194 -180 265 -44 43 -121 104 -148 119
-15 8 -29 17 -32 20 -3 3 -30 17 -60 31 -30 14 -58 29 -61 33 -3 5 -10 8 -15
7 -5 -1 -36 6 -69 15 -33 9 -75 20 -92 25 -41 10 -280 10 -309 -1 -11 -4 -34
-9 -50 -12 -72 -12 -304 -117 -304 -138 0 -4 -8 -10 -18 -14 -55 -17 -226
-222 -276 -330 -21 -46 -67 -175 -61 -175 2 0 -3 -23 -10 -51 -14 -51 -14
-254 -1 -314 22 -96 38 -146 69 -212 6 -13 8 -24 6 -26 -2 -2 -47 -25 -99 -51
-171 -86 -305 -189 -405 -312 -59 -72 -155 -234 -139 -234 3 0 2 -6 -4 -12
-10 -12 -39 -103 -46 -144 -2 -11 -7 -37 -11 -59 -5 -22 -9 -245 -10 -494 l-1
-455 -27 -7 c-16 -4 -25 -3 -21 2 3 5 -4 6 -18 1 -38 -14 -489 -4 -575 12 -10
2 -46 7 -78 11 -33 4 -69 9 -80 12 -11 2 -33 6 -50 8 -16 3 -37 7 -45 9 -8 2
-34 7 -56 11 l-42 7 0 449 0 449 31 14 c18 8 67 29 111 46 115 45 267 121 381
190 124 75 136 83 150 95 7 6 27 21 46 35 70 52 162 133 217 192 84 89 83 88
138 163 101 139 166 264 215 415 26 83 28 86 75 110 91 47 144 116 167 216 20
91 15 177 -23 389 -27 154 -30 168 -36 185 -3 8 -8 26 -11 40 -7 40 -60 142
-90 176 -30 33 -102 84 -125 88 -7 1 -17 4 -23 8 -34 20 -262 26 -325 8 -19
-5 -36 -7 -39 -4 -3 3 -6 155 -8 337 -1 183 -2 360 -2 395 -1 48 -4 61 -13 56
-7 -4 -10 -3 -5 1 4 5 170 10 370 11 372 2 383 3 457 43 86 47 158 139 183
231 11 46 13 229 11 1145 -1 600 -4 1104 -7 1121 -7 46 -36 132 -65 189 -88
178 -274 316 -475 352 -18 3 -264 6 -548 7 -500 2 -544 0 -650 -28 -24 -6
-122 -49 -134 -58 -5 -4 -37 -28 -71 -52 -56 -40 -154 -146 -154 -166 0 -5 -6
-15 -13 -22 -17 -16 -61 -125 -79 -193 -10 -40 -13 -269 -12 -1155 0 -608 4
-1118 8 -1135 31 -129 158 -249 290 -274 24 -4 199 -7 390 -7 214 1 339 -2
326 -8 -20 -9 -20 -17 -20 -420 1 -226 1 -431 0 -456 0 -39 -6 -52 -38 -86
-47 -51 -107 -171 -126 -255 -22 -91 -16 -247 12 -323 12 -32 19 -64 15 -70
-23 -38 -91 -116 -189 -213 -121 -119 -250 -213 -371 -269 -71 -33 -217 -81
-271 -90 -25 -4 -37 -6 -102 -19 -14 -3 -43 -8 -65 -10 -22 -3 -51 -7 -65 -10
-14 -3 -45 -7 -69 -10 -24 -2 -60 -7 -80 -9 -20 -3 -70 -8 -111 -11 -41 -4
-95 -8 -120 -11 -25 -2 -74 -6 -110 -9 -196 -16 -240 -20 -325 -31 -27 -4 -61
-8 -75 -9 -98 -11 -295 -68 -390 -113 -112 -52 -188 -103 -267 -180 l-44 -43
-19 23 c-11 13 -19 26 -20 30 0 4 -6 13 -14 20 -7 8 -43 59 -79 115 -277 425
-457 858 -568 1368 -11 50 -21 104 -24 120 -3 17 -7 46 -11 65 -3 19 -8 49 -9
65 -4 32 -10 83 -19 150 -26 204 -27 750 -1 884 2 11 6 44 9 73 9 79 14 116
20 146 3 15 8 43 11 62 4 19 10 53 15 75 5 22 11 54 14 70 4 17 13 57 22 90 8
33 15 67 16 75 0 8 5 21 11 28 5 6 7 12 3 12 -3 0 -1 11 4 25 5 14 12 36 14
48 16 83 145 424 217 574 27 56 49 106 49 111 0 6 3 12 8 14 4 2 21 30 37 63
17 33 36 66 42 73 7 7 13 17 13 22 0 11 63 114 73 118 4 2 7 8 7 14 0 11 103
166 168 253 154 205 279 345 468 525 160 152 496 403 644 481 25 13 47 27 50
30 10 12 326 169 370 184 3 1 19 8 35 15 17 7 35 14 40 16 6 1 42 14 80 29
113 44 345 114 425 129 14 2 54 11 90 19 36 9 83 18 105 21 22 4 54 8 70 11
17 3 53 7 80 10 28 3 61 7 75 10 14 3 61 7 105 11 44 3 81 6 82 7 4 5 378 -1
463 -7z m315 -710 c142 -50 248 -142 310 -268 18 -38 32 -68 31 -68 -2 0 2
-24 9 -52 7 -35 11 -148 11 -328 l-1 -275 -211 -1 -212 0 3 23 c1 13 -1 26 -6
29 -4 2 -6 10 -4 17 7 18 11 137 5 137 -3 0 -4 19 -2 42 9 145 -7 183 -78 183
-34 0 -47 -5 -62 -25 -16 -22 -19 -47 -21 -215 l-2 -190 -647 0 c-442 -1 -649
2 -651 10 -6 17 0 557 7 599 4 21 10 46 15 55 5 9 9 19 10 24 3 31 64 122 115
172 69 69 164 121 254 140 40 8 211 11 567 10 458 -2 515 -3 560 -19z m-238
-1155 c10 -1 13 -46 13 -184 -1 -220 3 -236 62 -250 33 -9 72 8 87 37 12 21
21 126 11 126 -3 0 -4 19 -2 42 1 24 2 69 2 101 0 31 0 65 0 75 0 9 0 26 0 37
1 19 7 20 213 19 l212 0 0 -720 0 -719 -23 -44 c-26 -48 -50 -72 -102 -98 -32
-16 -91 -18 -800 -18 -421 -1 -784 3 -806 7 -51 11 -121 69 -142 117 -14 32
-16 125 -17 751 -2 694 -1 715 17 720 15 4 1226 5 1275 1z m-377 -1755 c0 -2
-7 -7 -16 -10 -8 -3 -12 -2 -9 4 6 10 25 14 25 6z m54 -7 c3 -3 -5 -5 -19 -5
-13 0 -22 3 -19 7 4 8 30 6 38 -2z m387 -1001 c53 -18 98 -94 115 -195 2 -15
10 -53 16 -83 6 -30 12 -59 13 -65 1 -5 3 -12 4 -15 2 -3 4 -25 7 -50 2 -25 6
-65 9 -90 24 -184 -12 -225 -195 -225 -117 1 -159 7 -222 32 -112 44 -201 139
-224 239 -46 205 69 411 251 454 43 10 195 9 226 -2z m1499 -307 c146 -38 249
-98 342 -197 255 -274 241 -687 -33 -952 -24 -23 -52 -45 -61 -48 -10 -3 -18
-10 -18 -15 0 -5 -6 -9 -14 -9 -8 0 -16 -3 -18 -7 -7 -17 -121 -64 -195 -82
-93 -22 -238 -20 -327 4 -86 23 -198 80 -247 125 -72 66 -119 114 -119 121 0
4 -6 14 -13 21 -41 43 -92 163 -114 273 -8 40 -9 159 -1 216 18 127 92 272
189 368 24 24 90 81 94 81 2 0 31 16 63 35 53 30 162 67 232 78 47 7 195 -1
240 -12z m-1875 -561 c84 -40 196 -70 264 -70 l40 0 -19 -55 c-53 -153 -186
-350 -329 -488 -127 -121 -256 -212 -443 -311 -117 -62 -363 -166 -395 -168
-22 -1 -82 -40 -97 -64 -17 -24 -18 -66 -18 -500 l-1 -474 -21 3 c-11 2 -28 7
-36 10 -8 3 -71 24 -139 47 -68 23 -135 49 -150 56 -14 8 -29 14 -33 14 -7 0
-39 14 -209 93 -106 50 -326 177 -439 255 -89 61 -209 149 -220 162 -3 3 -36
30 -75 61 -133 108 -253 225 -446 436 -30 33 -37 53 -19 53 6 0 10 4 10 10 0
23 100 104 190 153 102 56 251 103 383 122 88 12 106 14 172 20 39 4 86 8 105
11 19 2 76 6 125 9 50 3 104 7 120 10 17 2 66 7 110 11 44 3 91 8 105 10 14 2
48 6 75 9 28 3 61 8 75 10 14 2 43 7 65 10 208 30 392 84 532 155 88 45 237
140 258 164 6 6 24 22 40 35 49 37 135 122 213 209 l74 81 26 -25 c15 -14 63
-43 107 -64z m1105 -726 c131 -134 337 -230 535 -250 39 -4 75 -7 80 -6 6 0
43 3 84 6 194 14 418 119 548 257 43 46 47 46 150 -3 107 -50 263 -156 263
-179 0 -26 -342 -385 -461 -484 -51 -42 -134 -110 -144 -118 -5 -4 -32 -25
-60 -46 -148 -114 -402 -269 -595 -363 -123 -59 -382 -165 -428 -174 l-28 -6
1 228 c0 190 -2 233 -16 264 -30 67 -118 77 -171 20 l-28 -30 0 -274 0 -274
-97 -23 c-54 -12 -109 -23 -123 -25 -14 -1 -25 -3 -25 -4 0 -5 -139 -24 -160
-21 -11 1 -12 779 -1 870 28 232 169 434 404 579 34 21 157 82 192 95 28 10
35 7 80 -39z"/>
<path d="M2275 4072 c-44 -5 -142 -30 -203 -53 -276 -101 -501 -360 -558 -644
-13 -65 -16 -88 -18 -168 -3 -89 11 -196 38 -286 13 -46 80 -191 98 -216 49
-65 110 -136 142 -164 22 -20 44 -40 50 -46 77 -70 269 -165 370 -180 17 -3
54 -9 81 -13 57 -9 202 -8 255 2 164 32 263 74 385 162 170 123 314 338 349
521 16 78 18 108 19 188 1 144 -17 235 -71 363 -97 232 -307 420 -551 496 -46
15 -97 28 -115 31 -17 2 -31 4 -31 5 0 4 -212 5 -240 2z m278 -227 c72 -18
208 -83 252 -120 87 -74 140 -137 184 -219 56 -103 71 -160 78 -297 10 -191
-55 -356 -197 -500 -128 -130 -288 -198 -470 -200 -86 -2 -144 6 -209 27 -168
55 -299 159 -389 308 -23 39 -42 74 -42 79 0 5 -6 23 -14 40 -27 64 -35 124
-32 237 3 116 5 132 25 183 6 15 9 27 7 27 -12 0 67 142 104 188 110 140 275
239 428 256 12 2 24 5 27 7 10 11 189 -1 248 -16z"/>
</g>
</svg>
