<?xml version="1.0" standalone="no"?>
<!DOCTYPE svg PUBLIC "-//W3C//DTD SVG 20010904//EN"
 "http://www.w3.org/TR/2001/REC-SVG-20010904/DTD/svg10.dtd">
<svg version="1.0" xmlns="http://www.w3.org/2000/svg"
 width="700.000000pt" height="700.000000pt" viewBox="0 0 700.000000 700.000000"
 preserveAspectRatio="xMidYMid meet">
<metadata>
Created by potrace 1.14, written by Peter Selinger 2001-2017
</metadata>
<g transform="translate(0.000000,700.000000) scale(0.100000,-0.100000)"
fill="#000000" stroke="none">
<path d="M204 6979 c-71 -27 -137 -88 -171 -157 l-28 -57 -2 -3256 -3 -3256
22 -54 c30 -73 108 -150 178 -177 l55 -21 3255 2 3255 2 57 28 c65 32 121 89
152 156 l21 46 2 3255 c2 3222 2 3256 -18 3306 -27 71 -88 137 -157 171 l-57
28 -3255 2 c-3222 2 -3256 2 -3306 -18z"/>
</g>
</svg>
